<?xml version="1.0" encoding="UTF-8" standalone="no"?>
<!-- Created with Inkscape (http://www.inkscape.org/) -->

<svg
   width="200"
   height="200"
   viewBox="0 0 52.916665 52.916666"
   version="1.1"
   id="svg5"
   sodipodi:docname="colaborar.svg"
   inkscape:version="1.2.2 (b0a84865, 2022-12-01)"
   xmlns:inkscape="http://www.inkscape.org/namespaces/inkscape"
   xmlns:sodipodi="http://sodipodi.sourceforge.net/DTD/sodipodi-0.dtd"
   xmlns:xlink="http://www.w3.org/1999/xlink"
   xmlns="http://www.w3.org/2000/svg"
   xmlns:svg="http://www.w3.org/2000/svg">
  <sodipodi:namedview
     id="namedview11"
     pagecolor="#ffffff"
     bordercolor="#666666"
     borderopacity="1.0"
     inkscape:showpageshadow="2"
     inkscape:pageopacity="0.0"
     inkscape:pagecheckerboard="0"
     inkscape:deskcolor="#d1d1d1"
     showgrid="false"
     inkscape:zoom="1.18"
     inkscape:cx="98.728814"
     inkscape:cy="100"
     inkscape:window-width="1440"
     inkscape:window-height="900"
     inkscape:window-x="0"
     inkscape:window-y="0"
     inkscape:window-maximized="0"
     inkscape:current-layer="svg5" />
  <defs
     id="defs2">
    <color-profile
       name="Adobe-RGB--1998-"
       xlink:href="file:///System/Library/ColorSync/Profiles/AdobeRGB1998.icc"
       id="color-profile937" />
  </defs>
  <g
     id="g849">
    <g
       aria-label="Colaborar"
       transform="rotate(-46.797658)"
       id="text500"
       style="font-style:italic;font-weight:bold;font-size:5.82083px;line-height:1.25;font-family:Courier;-inkscape-font-specification:'Courier Bold Italic';stroke-width:0.264583">
      <path
         d="m -12.476409,47.587027 q 0.07674,-0.102319 0.144952,-0.144952 0.07106,-0.04263 0.162006,-0.04263 0.139268,0 0.181901,0.0739 0.04263,0.0739 0.0028,0.252956 l -0.150637,0.738973 q -0.04263,0.196112 -0.122215,0.264324 -0.07674,0.06821 -0.244429,0.06821 -0.119373,0 -0.170532,-0.05684 -0.05116,-0.05684 -0.06537,-0.210323 -0.01705,-0.270009 -0.153479,-0.386539 -0.136425,-0.119373 -0.423488,-0.119373 -0.437699,0 -0.733288,0.295589 -0.295589,0.295589 -0.414961,0.855503 -0.119373,0.557072 0.05116,0.855503 0.173374,0.298431 0.611074,0.298431 0.298431,0 0.699181,-0.198954 0.403593,-0.198954 0.497386,-0.198954 0.110846,0 0.164847,0.09379 0.05684,0.09379 0.02842,0.23306 -0.054,0.250114 -0.54286,0.471806 -0.486017,0.221691 -1.037404,0.221691 -0.744657,0 -1.102774,-0.491701 -0.355276,-0.491701 -0.184743,-1.284675 0.162005,-0.764552 0.73613,-1.270464 0.574125,-0.505912 1.29036,-0.505912 0.201796,0 0.386539,0.04547 0.187585,0.04548 0.389382,0.14211 z"
         id="path852" />
      <path
         d="m -10.12875,48.775068 q -0.332538,0 -0.594021,0.218849 -0.261482,0.216008 -0.332537,0.55423 -0.0739,0.341064 0.09379,0.565598 0.16769,0.221692 0.500228,0.221692 0.332538,0 0.5940202,-0.221692 0.2643248,-0.224534 0.3382221,-0.565598 0.071055,-0.338222 -0.096635,-0.55423 -0.1676899,-0.218849 -0.5030694,-0.218849 z m 0.127899,-0.599705 q 0.6906548,0 1.0374035,0.386539 0.3467487,0.38654 0.2160074,0.991929 -0.1278991,0.608231 -0.6394955,0.994771 -0.5115964,0.386539 -1.2022514,0.386539 -0.687813,0 -1.034562,-0.386539 -0.346748,-0.38654 -0.218849,-0.994771 0.130741,-0.605389 0.642337,-0.991929 0.514439,-0.386539 1.19941,-0.386539 z"
         id="path854" />
      <path
         d="m -6.5987354,50.241644 h 0.6110734 q 0.196112,0 0.2586404,0.07106 0.065371,0.07106 0.031264,0.235903 -0.034106,0.16769 -0.1307413,0.241587 -0.096635,0.0739 -0.2899046,0.0739 h -1.927013 q -0.1904275,0 -0.2557982,-0.0739 -0.065371,-0.0739 -0.031264,-0.241587 0.036949,-0.16769 0.1278991,-0.235903 0.093793,-0.07106 0.2899046,-0.07106 h 0.6110735 l 0.5258074,-2.467032 h -0.3126423 q -0.1932697,0 -0.2614826,-0.0739 -0.068213,-0.07674 -0.034106,-0.241587 0.036949,-0.16769 0.1335835,-0.241587 0.099477,-0.0739 0.295589,-0.0739 h 0.8498184 q 0.079582,0 0.1165303,0.03411 0.036949,0.03126 0.02558,0.08811 z"
         id="path856" />
      <path
         d="m -2.295642,50.241644 h 0.045475 q 0.153479,0 0.2160074,0.08242 0.065371,0.07958 0.034106,0.230218 -0.036949,0.164848 -0.1364257,0.238745 -0.096635,0.07106 -0.2899046,0.07106 h -0.267167 q -0.1421101,0 -0.2017963,-0.054 -0.056844,-0.054 -0.073897,-0.196112 -0.267167,0.156321 -0.5513872,0.238745 -0.281378,0.08242 -0.5513872,0.08242 -0.4575945,0 -0.6707597,-0.227376 -0.2131651,-0.227376 -0.1278991,-0.622442 0.09095,-0.426331 0.47749,-0.662233 0.3893817,-0.235903 1.0004551,-0.235903 0.1364257,0 0.2870624,0.01421 0.1506367,0.01421 0.3325377,0.04548 l 0.011369,-0.054 q 0.056844,-0.255798 -0.039791,-0.389381 -0.093793,-0.133584 -0.3353798,-0.133584 -0.1875853,0 -0.5087542,0.139268 -0.3211688,0.139268 -0.4575945,0.139268 -0.1335835,0 -0.2017964,-0.07674 -0.065371,-0.07958 -0.036949,-0.20748 0.048317,-0.230219 0.4121193,-0.363802 0.3666441,-0.136426 0.9464533,-0.136426 0.6053891,0 0.8185542,0.233061 0.2131652,0.23306 0.093793,0.790132 z m -0.5712826,-0.548545 q -0.1364257,-0.03126 -0.252956,-0.04547 -0.1136881,-0.01705 -0.2160074,-0.01705 -0.3126422,0 -0.5144385,0.105162 -0.1989542,0.105161 -0.238745,0.289905 -0.034106,0.164847 0.059686,0.252956 0.096635,0.08527 0.3098001,0.08527 0.1961119,0 0.380855,-0.05684 0.1847432,-0.05684 0.3780129,-0.176217 z"
         id="path858" />
      <path
         d="m 0.45276785,48.84328 q -0.2785358,0 -0.50875417,0.210323 -0.22737617,0.207481 -0.29558902,0.52865 -0.0682128,0.329695 0.0682128,0.540018 0.1364257,0.207481 0.41780371,0.207481 0.28137801,0 0.50875417,-0.210323 0.23021837,-0.210323 0.29843122,-0.537176 0.0682129,-0.318327 -0.0710551,-0.52865 Q 0.73130366,48.84328 0.45276785,48.84328 Z m -0.5542294,-0.34959 q 0.16200551,-0.119373 0.36380186,-0.187586 0.20179635,-0.06821 0.4064349,-0.06821 0.59117799,0 0.88392489,0.392224 0.2927468,0.389382 0.1648477,1.000455 -0.1193725,0.557072 -0.5826514,0.932243 -0.46327899,0.372328 -1.04593041,0.372328 -0.27569361,0 -0.46043674,-0.09379 -0.18190094,-0.09663 -0.267167,-0.287063 l -0.0397908,0.187585 q -0.014211,0.05684 -0.0653707,0.09095 -0.0483174,0.03126 -0.12789909,0.03126 H -1.3093974 q -0.1932698,0 -0.2614826,-0.07106 -0.065371,-0.0739 -0.028422,-0.244429 0.031264,-0.150637 0.1250569,-0.227376 0.096635,-0.07958 0.2501138,-0.07958 h 0.045475 l 0.52580734,-2.467032 h -0.0454752 q -0.15347891,0 -0.21884956,-0.07958 -0.0625284,-0.08242 -0.0312642,-0.235903 0.0369486,-0.16769 0.1335835,-0.241587 0.0994771,-0.0739 0.29558902,-0.0739 h 0.53149179 q 0.09095047,0 0.12221469,0.04547 0.0312642,0.04263 0.0113688,0.14211 z"
         id="path860" />
      <path
         d="m 3.8435154,48.775068 q -0.3325377,0 -0.5940203,0.218849 -0.2614826,0.216008 -0.3325376,0.55423 -0.073897,0.341064 0.093793,0.565598 0.1676899,0.221692 0.5002275,0.221692 0.3325377,0 0.5940203,-0.221692 0.2643248,-0.224534 0.338222,-0.565598 0.071055,-0.338222 -0.096635,-0.55423 -0.1676899,-0.218849 -0.5030697,-0.218849 z m 0.1278991,-0.599705 q 0.6906551,0 1.0374037,0.386539 0.3467487,0.38654 0.2160074,0.991929 -0.1278991,0.608231 -0.6394955,0.994771 -0.5115964,0.386539 -1.2022515,0.386539 -0.6878129,0 -1.0345615,-0.386539 -0.3467487,-0.38654 -0.2188496,-0.994771 0.1307413,-0.605389 0.6423377,-0.991929 0.5144386,-0.386539 1.1994093,-0.386539 z"
         id="path862" />
      <path
         d="m 7.0921509,49.32077 -0.196112,0.920874 h 0.6707597 q 0.1932698,0 0.2586404,0.07106 0.065371,0.07106 0.031264,0.235903 -0.034106,0.16769 -0.1307413,0.241587 -0.096635,0.0739 -0.2899046,0.0739 H 5.8472664 q -0.196112,0 -0.2643248,-0.0739 -0.065371,-0.0739 -0.031264,-0.241587 0.034107,-0.164848 0.1307413,-0.235903 0.096635,-0.07106 0.295589,-0.07106 H 6.194015 l 0.2927468,-1.38131 H 6.3645471 q -0.1932697,0 -0.2586404,-0.07106 -0.065371,-0.0739 -0.028422,-0.241588 0.034106,-0.167689 0.1278991,-0.238745 0.093793,-0.07106 0.2927468,-0.07106 h 0.6053891 q 0.076739,0 0.1108459,0.03411 0.036949,0.03126 0.02558,0.08811 l -0.09095,0.420646 q 0.3808551,-0.332538 0.6792863,-0.474648 0.2984312,-0.14211 0.6082313,-0.14211 0.281378,0 0.4206459,0.127899 0.1392679,0.125057 0.093793,0.338222 -0.036949,0.164848 -0.1733743,0.272852 -0.1364257,0.105161 -0.3154844,0.105161 -0.1278991,0 -0.2842202,-0.09379 -0.153479,-0.09379 -0.2216918,-0.09379 -0.1364257,0 -0.3467487,0.122215 -0.2103229,0.122214 -0.5172807,0.378012 z"
         id="path864" />
      <path
         d="m 11.676623,50.241644 h 0.04548 q 0.153479,0 0.216008,0.08242 0.06537,0.07958 0.03411,0.230218 -0.03695,0.164848 -0.136425,0.238745 -0.09663,0.07106 -0.289905,0.07106 h -0.267167 q -0.14211,0 -0.201796,-0.054 -0.05684,-0.054 -0.0739,-0.196112 -0.267167,0.156321 -0.551387,0.238745 -0.281378,0.08242 -0.551387,0.08242 -0.4575946,0 -0.6707597,-0.227376 -0.2131652,-0.227376 -0.1278991,-0.622442 0.09095,-0.426331 0.4774899,-0.662233 0.3893817,-0.235903 1.0004549,-0.235903 0.136426,0 0.287063,0.01421 0.150636,0.01421 0.332537,0.04548 l 0.01137,-0.054 q 0.05684,-0.255798 -0.03979,-0.389381 -0.09379,-0.133584 -0.33538,-0.133584 -0.187585,0 -0.508754,0.139268 -0.321169,0.139268 -0.4575943,0.139268 -0.1335835,0 -0.2017963,-0.07674 -0.065371,-0.07958 -0.036949,-0.20748 0.048317,-0.230219 0.4121192,-0.363802 0.366644,-0.136426 0.946453,-0.136426 0.605389,0 0.818555,0.233061 0.213165,0.23306 0.09379,0.790132 z m -0.571282,-0.548545 q -0.136426,-0.03126 -0.252956,-0.04547 -0.113688,-0.01705 -0.216008,-0.01705 -0.312642,0 -0.514438,0.105162 -0.1989544,0.105161 -0.2387453,0.289905 -0.034106,0.164847 0.059686,0.252956 0.096635,0.08527 0.3098,0.08527 0.196112,0 0.380855,-0.05684 0.184743,-0.05684 0.378013,-0.176217 z"
         id="path866" />
      <path
         d="m 14.078284,49.32077 -0.196112,0.920874 h 0.67076 q 0.19327,0 0.258641,0.07106 0.06537,0.07106 0.03126,0.235903 -0.03411,0.16769 -0.130741,0.241587 -0.09664,0.0739 -0.289905,0.0739 H 12.8334 q -0.196112,0 -0.264325,-0.0739 -0.06537,-0.0739 -0.03126,-0.241587 0.03411,-0.164848 0.130741,-0.235903 0.09663,-0.07106 0.295589,-0.07106 h 0.216008 l 0.292746,-1.38131 h -0.122214 q -0.19327,0 -0.258641,-0.07106 -0.06537,-0.0739 -0.02842,-0.241588 0.03411,-0.167689 0.127899,-0.238745 0.09379,-0.07106 0.292747,-0.07106 h 0.605389 q 0.07674,0 0.110846,0.03411 0.03695,0.03126 0.02558,0.08811 l -0.09095,0.420646 q 0.380856,-0.332538 0.679287,-0.474648 0.298431,-0.14211 0.608231,-0.14211 0.281378,0 0.420646,0.127899 0.139268,0.125057 0.09379,0.338222 -0.03695,0.164848 -0.173375,0.272852 -0.136425,0.105161 -0.315484,0.105161 -0.127899,0 -0.28422,-0.09379 -0.153479,-0.09379 -0.221692,-0.09379 -0.136426,0 -0.346749,0.122215 -0.210323,0.122214 -0.517281,0.378012 z"
         id="path868" />
    </g>
    <path
       style="opacity:0.286174;fill:#ffff00;fill-opacity:1;stroke:#000000;stroke-width:0.314619;stroke-linejoin:round"
       d="M 26.567351,26.646008 C 40.929498,12.283668 52.69812,0.53266176 52.719847,0.53266176 c 0.02172,0 0.03951,11.75100624 0.03951,26.11334624 V 52.759357 H 26.606856 0.45436016 Z"
       id="path1460" />
  </g>
</svg>
